<svg xmlns="http://www.w3.org/2000/svg" data-name="Artboard 30" viewBox="0 0 64 64"><polyline fill="#deeaf0" points="41 58 41 45 61 45 61 58"/><polyline fill="#deeaf0" points="3 58 3 45 23 45 23 58"/><rect width="16" height="38" x="42" y="7" fill="#5e7d8d"/><rect width="12" height="5" x="44" y="2" fill="#968169"/><rect width="16" height="38" x="6" y="7" fill="#5e7d8d"/><rect width="12" height="5" x="8" y="2" fill="#968169"/><rect width="10" height="2" x="9" y="16" fill="#fff"/><rect width="10" height="2" x="45" y="16" fill="#fff"/><rect width="10" height="2" x="45" y="36" fill="#fff"/><rect width="10" height="2" x="45" y="31" fill="#fff"/><rect width="10" height="2" x="45" y="26" fill="#fff"/><rect width="10" height="2" x="45" y="21" fill="#fff"/><rect width="10" height="2" x="45" y="11" fill="#fff"/><rect width="10" height="2" x="9" y="36" fill="#fff"/><rect width="10" height="2" x="9" y="31" fill="#fff"/><rect width="10" height="2" x="9" y="26" fill="#fff"/><rect width="10" height="2" x="9" y="21" fill="#fff"/><rect width="10" height="2" x="9" y="11" fill="#fff"/><path fill="#deeaf0" d="M18,45V18a3,3,0,0,1,3-3H43a3,3,0,0,1,3,3V45Z"/><rect width="28" height="24" x="18" y="21" fill="#968169"/><rect width="20" height="6" x="22" y="35" fill="#7cc4ce"/><rect width="20" height="6" x="22" y="25" fill="#7cc4ce"/><rect width="60" height="4" x="2" y="58" fill="#66533b"/><path fill="#7cc4ce" d="M53 58V51a2 2 0 012-2h0a2 2 0 012 2v7zM45 58V51a2 2 0 012-2h0a2 2 0 012 2v7zM15 58V51a2 2 0 012-2h0a2 2 0 012 2v7zM7 58V51a2 2 0 012-2H9a2 2 0 012 2v7z"/><rect width="18" height="13" x="23" y="45" fill="#5e7d8d"/><path fill="#7cc4ce" d="M28,58V53a4,4,0,0,1,4-4h0a4,4,0,0,1,4,4v5Z"/><rect width="6" height="6" x="29" y="35" fill="#99dbe0"/><rect width="6" height="6" x="29" y="25" fill="#99dbe0"/><rect width="12" height="7" x="26" y="10" fill="#968169"/><rect width="12" height="2" x="8" y="5" fill="#84715e"/><rect width="12" height="2" x="44" y="5" fill="#84715e"/><rect width="28" height="2" x="18" y="21" fill="#84715e"/><rect width="28" height="2" x="18" y="43" fill="#84715e"/><rect width="12" height="2" x="6" y="43" fill="#53707c"/><rect width="12" height="2" x="46" y="43" fill="#53707c"/><polygon fill="#99dbe0" points="38 41 36 41 38 35 40 35 38 41"/><polygon fill="#99dbe0" points="26 41 24 41 26 35 28 35 26 41"/><polygon fill="#99dbe0" points="38 31 36 31 38 25 40 25 38 31"/><polygon fill="#99dbe0" points="26 31 24 31 26 25 28 25 26 31"/></svg>